<?xml version="1.0" encoding="UTF-8" standalone="no"?>
<!DOCTYPE svg PUBLIC "-//W3C//DTD SVG 1.1//EN"
 "http://www.w3.org/Graphics/SVG/1.1/DTD/svg11.dtd">
<!-- Generated by graphviz version 9.0.0 (20230911.1827)
 -->
<!-- Title: Tree Pages: 1 -->
<svg width="331pt" height="335pt"
 viewBox="0.00 0.00 331.25 335.00" xmlns="http://www.w3.org/2000/svg" xmlns:xlink="http://www.w3.org/1999/xlink">
<g id="graph0" class="graph" transform="scale(1 1) rotate(0) translate(4 331)">
<title>Tree</title>
<polygon fill="white" stroke="none" points="-4,4 -4,-331 327.25,-331 327.25,4 -4,4"/>
<!-- 0 -->
<g id="node1" class="node">
<title>0</title>
<path fill="#ffffff" stroke="black" d="M178,-327C178,-327 77.25,-327 77.25,-327 71.25,-327 65.25,-321 65.25,-315 65.25,-315 65.25,-248.5 65.25,-248.5 65.25,-242.5 71.25,-236.5 77.25,-236.5 77.25,-236.5 178,-236.5 178,-236.5 184,-236.5 190,-242.5 190,-248.5 190,-248.5 190,-315 190,-315 190,-321 184,-327 178,-327"/>
<text text-anchor="start" x="73.25" y="-309.7" font-family="Helvetica,sans-Serif" font-size="14.00">Feature_2 ≤ 4.55</text>
<text text-anchor="start" x="98.75" y="-293.2" font-family="Helvetica,sans-Serif" font-size="14.00">gini = 0.5</text>
<text text-anchor="start" x="84.5" y="-276.7" font-family="Helvetica,sans-Serif" font-size="14.00">samples = 30</text>
<text text-anchor="start" x="79.25" y="-260.2" font-family="Helvetica,sans-Serif" font-size="14.00">value = [15, 15]</text>
<text text-anchor="start" x="77" y="-243.7" font-family="Helvetica,sans-Serif" font-size="14.00">class = Class_0</text>
</g>
<!-- 1 -->
<g id="node2" class="node">
<title>1</title>
<path fill="#399de5" stroke="black" d="M105.25,-192.25C105.25,-192.25 12,-192.25 12,-192.25 6,-192.25 0,-186.25 0,-180.25 0,-180.25 0,-130.25 0,-130.25 0,-124.25 6,-118.25 12,-118.25 12,-118.25 105.25,-118.25 105.25,-118.25 111.25,-118.25 117.25,-124.25 117.25,-130.25 117.25,-130.25 117.25,-180.25 117.25,-180.25 117.25,-186.25 111.25,-192.25 105.25,-192.25"/>
<text text-anchor="start" x="29.75" y="-174.95" font-family="Helvetica,sans-Serif" font-size="14.00">gini = 0.0</text>
<text text-anchor="start" x="15.5" y="-158.45" font-family="Helvetica,sans-Serif" font-size="14.00">samples = 14</text>
<text text-anchor="start" x="14.38" y="-141.95" font-family="Helvetica,sans-Serif" font-size="14.00">value = [0, 14]</text>
<text text-anchor="start" x="8" y="-125.45" font-family="Helvetica,sans-Serif" font-size="14.00">class = Class_1</text>
</g>
<!-- 0&#45;&gt;1 -->
<g id="edge1" class="edge">
<title>0&#45;&gt;1</title>
<path fill="none" stroke="black" d="M102.91,-236.15C96.81,-225.15 90.27,-213.34 84.13,-202.27"/>
<polygon fill="black" stroke="black" points="87.28,-200.73 79.37,-193.68 81.16,-204.12 87.28,-200.73"/>
<text text-anchor="middle" x="71.74" y="-211.34" font-family="Helvetica,sans-Serif" font-size="14.00">True</text>
</g>
<!-- 2 -->
<g id="node3" class="node">
<title>2</title>
<path fill="#e78946" stroke="black" d="M248,-200.5C248,-200.5 147.25,-200.5 147.25,-200.5 141.25,-200.5 135.25,-194.5 135.25,-188.5 135.25,-188.5 135.25,-122 135.25,-122 135.25,-116 141.25,-110 147.25,-110 147.25,-110 248,-110 248,-110 254,-110 260,-116 260,-122 260,-122 260,-188.5 260,-188.5 260,-194.5 254,-200.5 248,-200.5"/>
<text text-anchor="start" x="143.25" y="-183.2" font-family="Helvetica,sans-Serif" font-size="14.00">Feature_1 ≤ 20.0</text>
<text text-anchor="start" x="160.5" y="-166.7" font-family="Helvetica,sans-Serif" font-size="14.00">gini = 0.117</text>
<text text-anchor="start" x="154.5" y="-150.2" font-family="Helvetica,sans-Serif" font-size="14.00">samples = 16</text>
<text text-anchor="start" x="153.38" y="-133.7" font-family="Helvetica,sans-Serif" font-size="14.00">value = [15, 1]</text>
<text text-anchor="start" x="147" y="-117.2" font-family="Helvetica,sans-Serif" font-size="14.00">class = Class_0</text>
</g>
<!-- 0&#45;&gt;2 -->
<g id="edge2" class="edge">
<title>0&#45;&gt;2</title>
<path fill="none" stroke="black" d="M152.7,-236.15C157.32,-227.93 162.2,-219.26 166.97,-210.78"/>
<polygon fill="black" stroke="black" points="169.9,-212.7 171.75,-202.27 163.8,-209.27 169.9,-212.7"/>
<text text-anchor="middle" x="179.24" y="-219.98" font-family="Helvetica,sans-Serif" font-size="14.00">False</text>
</g>
<!-- 3 -->
<g id="node4" class="node">
<title>3</title>
<path fill="#e58139" stroke="black" d="M176.25,-74C176.25,-74 83,-74 83,-74 77,-74 71,-68 71,-62 71,-62 71,-12 71,-12 71,-6 77,0 83,0 83,0 176.25,0 176.25,0 182.25,0 188.25,-6 188.25,-12 188.25,-12 188.25,-62 188.25,-62 188.25,-68 182.25,-74 176.25,-74"/>
<text text-anchor="start" x="100.75" y="-56.7" font-family="Helvetica,sans-Serif" font-size="14.00">gini = 0.0</text>
<text text-anchor="start" x="86.5" y="-40.2" font-family="Helvetica,sans-Serif" font-size="14.00">samples = 15</text>
<text text-anchor="start" x="85.38" y="-23.7" font-family="Helvetica,sans-Serif" font-size="14.00">value = [15, 0]</text>
<text text-anchor="start" x="79" y="-7.2" font-family="Helvetica,sans-Serif" font-size="14.00">class = Class_0</text>
</g>
<!-- 2&#45;&gt;3 -->
<g id="edge3" class="edge">
<title>2&#45;&gt;3</title>
<path fill="none" stroke="black" d="M171.53,-109.64C166.63,-101.26 161.5,-92.49 156.57,-84.07"/>
<polygon fill="black" stroke="black" points="159.75,-82.56 151.68,-75.7 153.71,-86.1 159.75,-82.56"/>
</g>
<!-- 4 -->
<g id="node5" class="node">
<title>4</title>
<path fill="#399de5" stroke="black" d="M311.25,-74C311.25,-74 218,-74 218,-74 212,-74 206,-68 206,-62 206,-62 206,-12 206,-12 206,-6 212,0 218,0 218,0 311.25,0 311.25,0 317.25,0 323.25,-6 323.25,-12 323.25,-12 323.25,-62 323.25,-62 323.25,-68 317.25,-74 311.25,-74"/>
<text text-anchor="start" x="235.75" y="-56.7" font-family="Helvetica,sans-Serif" font-size="14.00">gini = 0.0</text>
<text text-anchor="start" x="225.62" y="-40.2" font-family="Helvetica,sans-Serif" font-size="14.00">samples = 1</text>
<text text-anchor="start" x="224.5" y="-23.7" font-family="Helvetica,sans-Serif" font-size="14.00">value = [0, 1]</text>
<text text-anchor="start" x="214" y="-7.2" font-family="Helvetica,sans-Serif" font-size="14.00">class = Class_1</text>
</g>
<!-- 2&#45;&gt;4 -->
<g id="edge4" class="edge">
<title>2&#45;&gt;4</title>
<path fill="none" stroke="black" d="M223.34,-109.64C228.11,-101.35 233.11,-92.68 237.91,-84.34"/>
<polygon fill="black" stroke="black" points="240.93,-86.12 242.89,-75.7 234.87,-82.62 240.93,-86.12"/>
</g>
</g>
</svg>
