<?xml version="1.0" encoding="UTF-8" standalone="no"?>
<!DOCTYPE svg PUBLIC "-//W3C//DTD SVG 1.1//EN"
 "http://www.w3.org/Graphics/SVG/1.1/DTD/svg11.dtd">
<!-- Generated by graphviz version 9.0.0 (20230911.1827)
 -->
<!-- Title: Tree Pages: 1 -->
<svg width="739pt" height="715pt"
 viewBox="0.00 0.00 739.25 714.50" xmlns="http://www.w3.org/2000/svg" xmlns:xlink="http://www.w3.org/1999/xlink">
<g id="graph0" class="graph" transform="scale(1 1) rotate(0) translate(4 710.5)">
<title>Tree</title>
<polygon fill="white" stroke="none" points="-4,4 -4,-710.5 735.25,-710.5 735.25,4 -4,4"/>
<!-- 0 -->
<g id="node1" class="node">
<title>0</title>
<path fill="#fef9f5" stroke="black" d="M410.25,-706.5C410.25,-706.5 278,-706.5 278,-706.5 272,-706.5 266,-700.5 266,-694.5 266,-694.5 266,-628 266,-628 266,-622 272,-616 278,-616 278,-616 410.25,-616 410.25,-616 416.25,-616 422.25,-622 422.25,-628 422.25,-628 422.25,-694.5 422.25,-694.5 422.25,-700.5 416.25,-706.5 410.25,-706.5"/>
<text text-anchor="start" x="274" y="-689.2" font-family="Helvetica,sans-Serif" font-size="14.00">petal length (cm) ≤ 2.5</text>
<text text-anchor="start" x="307" y="-672.7" font-family="Helvetica,sans-Serif" font-size="14.00">gini = 0.666</text>
<text text-anchor="start" x="296.88" y="-656.2" font-family="Helvetica,sans-Serif" font-size="14.00">samples = 120</text>
<text text-anchor="start" x="283.75" y="-639.7" font-family="Helvetica,sans-Serif" font-size="14.00">value = [43, 38, 39]</text>
<text text-anchor="start" x="298.38" y="-623.2" font-family="Helvetica,sans-Serif" font-size="14.00">class = setosa</text>
</g>
<!-- 1 -->
<g id="node2" class="node">
<title>1</title>
<path fill="#e58139" stroke="black" d="M314.25,-571.75C314.25,-571.75 218,-571.75 218,-571.75 212,-571.75 206,-565.75 206,-559.75 206,-559.75 206,-509.75 206,-509.75 206,-503.75 212,-497.75 218,-497.75 218,-497.75 314.25,-497.75 314.25,-497.75 320.25,-497.75 326.25,-503.75 326.25,-509.75 326.25,-509.75 326.25,-559.75 326.25,-559.75 326.25,-565.75 320.25,-571.75 314.25,-571.75"/>
<text text-anchor="start" x="237.25" y="-554.45" font-family="Helvetica,sans-Serif" font-size="14.00">gini = 0.0</text>
<text text-anchor="start" x="223" y="-537.95" font-family="Helvetica,sans-Serif" font-size="14.00">samples = 43</text>
<text text-anchor="start" x="214" y="-521.45" font-family="Helvetica,sans-Serif" font-size="14.00">value = [43, 0, 0]</text>
<text text-anchor="start" x="220.38" y="-504.95" font-family="Helvetica,sans-Serif" font-size="14.00">class = setosa</text>
</g>
<!-- 0&#45;&gt;1 -->
<g id="edge1" class="edge">
<title>0&#45;&gt;1</title>
<path fill="none" stroke="black" d="M316.19,-615.65C309.22,-604.54 301.74,-592.6 294.75,-581.43"/>
<polygon fill="black" stroke="black" points="297.82,-579.75 289.55,-573.14 291.89,-583.47 297.82,-579.75"/>
<text text-anchor="middle" x="283.15" y="-591.17" font-family="Helvetica,sans-Serif" font-size="14.00">True</text>
</g>
<!-- 2 -->
<g id="node3" class="node">
<title>2</title>
<path fill="#fcfafe" stroke="black" d="M490.38,-580C490.38,-580 355.88,-580 355.88,-580 349.88,-580 343.88,-574 343.88,-568 343.88,-568 343.88,-501.5 343.88,-501.5 343.88,-495.5 349.88,-489.5 355.88,-489.5 355.88,-489.5 490.38,-489.5 490.38,-489.5 496.38,-489.5 502.38,-495.5 502.38,-501.5 502.38,-501.5 502.38,-568 502.38,-568 502.38,-574 496.38,-580 490.38,-580"/>
<text text-anchor="start" x="351.88" y="-562.7" font-family="Helvetica,sans-Serif" font-size="14.00">petal width (cm) ≤ 1.75</text>
<text text-anchor="start" x="394.25" y="-546.2" font-family="Helvetica,sans-Serif" font-size="14.00">gini = 0.5</text>
<text text-anchor="start" x="380" y="-529.7" font-family="Helvetica,sans-Serif" font-size="14.00">samples = 77</text>
<text text-anchor="start" x="366.88" y="-513.2" font-family="Helvetica,sans-Serif" font-size="14.00">value = [0, 38, 39]</text>
<text text-anchor="start" x="373.25" y="-496.7" font-family="Helvetica,sans-Serif" font-size="14.00">class = virginica</text>
</g>
<!-- 0&#45;&gt;2 -->
<g id="edge2" class="edge">
<title>0&#45;&gt;2</title>
<path fill="none" stroke="black" d="M372.42,-615.65C377.7,-607.34 383.26,-598.57 388.7,-590"/>
<polygon fill="black" stroke="black" points="391.55,-592.05 393.95,-581.73 385.64,-588.3 391.55,-592.05"/>
<text text-anchor="middle" x="400.21" y="-599.8" font-family="Helvetica,sans-Serif" font-size="14.00">False</text>
</g>
<!-- 3 -->
<g id="node4" class="node">
<title>3</title>
<path fill="#49e78b" stroke="black" d="M402.38,-453.5C402.38,-453.5 261.88,-453.5 261.88,-453.5 255.88,-453.5 249.88,-447.5 249.88,-441.5 249.88,-441.5 249.88,-375 249.88,-375 249.88,-369 255.88,-363 261.88,-363 261.88,-363 402.38,-363 402.38,-363 408.38,-363 414.38,-369 414.38,-375 414.38,-375 414.38,-441.5 414.38,-441.5 414.38,-447.5 408.38,-453.5 402.38,-453.5"/>
<text text-anchor="start" x="257.88" y="-436.2" font-family="Helvetica,sans-Serif" font-size="14.00">petal length (cm) ≤ 5.35</text>
<text text-anchor="start" x="295" y="-419.7" font-family="Helvetica,sans-Serif" font-size="14.00">gini = 0.139</text>
<text text-anchor="start" x="289" y="-403.2" font-family="Helvetica,sans-Serif" font-size="14.00">samples = 40</text>
<text text-anchor="start" x="280" y="-386.7" font-family="Helvetica,sans-Serif" font-size="14.00">value = [0, 37, 3]</text>
<text text-anchor="start" x="277" y="-370.2" font-family="Helvetica,sans-Serif" font-size="14.00">class = versicolor</text>
</g>
<!-- 2&#45;&gt;3 -->
<g id="edge3" class="edge">
<title>2&#45;&gt;3</title>
<path fill="none" stroke="black" d="M390.53,-489.15C384.39,-480.75 377.9,-471.88 371.58,-463.23"/>
<polygon fill="black" stroke="black" points="374.42,-461.18 365.69,-455.17 368.77,-465.31 374.42,-461.18"/>
</g>
<!-- 10 -->
<g id="node11" class="node">
<title>10</title>
<path fill="#843ee6" stroke="black" d="M585.38,-453.5C585.38,-453.5 444.88,-453.5 444.88,-453.5 438.88,-453.5 432.88,-447.5 432.88,-441.5 432.88,-441.5 432.88,-375 432.88,-375 432.88,-369 438.88,-363 444.88,-363 444.88,-363 585.38,-363 585.38,-363 591.38,-363 597.38,-369 597.38,-375 597.38,-375 597.38,-441.5 597.38,-441.5 597.38,-447.5 591.38,-453.5 585.38,-453.5"/>
<text text-anchor="start" x="440.88" y="-436.2" font-family="Helvetica,sans-Serif" font-size="14.00">petal length (cm) ≤ 4.85</text>
<text text-anchor="start" x="478" y="-419.7" font-family="Helvetica,sans-Serif" font-size="14.00">gini = 0.053</text>
<text text-anchor="start" x="472" y="-403.2" font-family="Helvetica,sans-Serif" font-size="14.00">samples = 37</text>
<text text-anchor="start" x="463" y="-386.7" font-family="Helvetica,sans-Serif" font-size="14.00">value = [0, 1, 36]</text>
<text text-anchor="start" x="465.25" y="-370.2" font-family="Helvetica,sans-Serif" font-size="14.00">class = virginica</text>
</g>
<!-- 2&#45;&gt;10 -->
<g id="edge10" class="edge">
<title>2&#45;&gt;10</title>
<path fill="none" stroke="black" d="M456.08,-489.15C462.36,-480.66 468.98,-471.69 475.44,-462.95"/>
<polygon fill="black" stroke="black" points="478.06,-465.29 481.19,-455.17 472.43,-461.13 478.06,-465.29"/>
</g>
<!-- 4 -->
<g id="node5" class="node">
<title>4</title>
<path fill="#3ee684" stroke="black" d="M250.38,-327C250.38,-327 109.88,-327 109.88,-327 103.88,-327 97.88,-321 97.88,-315 97.88,-315 97.88,-248.5 97.88,-248.5 97.88,-242.5 103.88,-236.5 109.88,-236.5 109.88,-236.5 250.38,-236.5 250.38,-236.5 256.38,-236.5 262.38,-242.5 262.38,-248.5 262.38,-248.5 262.38,-315 262.38,-315 262.38,-321 256.38,-327 250.38,-327"/>
<text text-anchor="start" x="105.88" y="-309.7" font-family="Helvetica,sans-Serif" font-size="14.00">petal length (cm) ≤ 4.95</text>
<text text-anchor="start" x="143" y="-293.2" font-family="Helvetica,sans-Serif" font-size="14.00">gini = 0.051</text>
<text text-anchor="start" x="137" y="-276.7" font-family="Helvetica,sans-Serif" font-size="14.00">samples = 38</text>
<text text-anchor="start" x="128" y="-260.2" font-family="Helvetica,sans-Serif" font-size="14.00">value = [0, 37, 1]</text>
<text text-anchor="start" x="125" y="-243.7" font-family="Helvetica,sans-Serif" font-size="14.00">class = versicolor</text>
</g>
<!-- 3&#45;&gt;4 -->
<g id="edge4" class="edge">
<title>3&#45;&gt;4</title>
<path fill="none" stroke="black" d="M277.68,-362.65C266.55,-353.54 254.74,-343.87 243.33,-334.52"/>
<polygon fill="black" stroke="black" points="245.83,-332.04 235.87,-328.41 241.39,-337.46 245.83,-332.04"/>
</g>
<!-- 9 -->
<g id="node10" class="node">
<title>9</title>
<path fill="#8139e5" stroke="black" d="M384,-318.75C384,-318.75 292.25,-318.75 292.25,-318.75 286.25,-318.75 280.25,-312.75 280.25,-306.75 280.25,-306.75 280.25,-256.75 280.25,-256.75 280.25,-250.75 286.25,-244.75 292.25,-244.75 292.25,-244.75 384,-244.75 384,-244.75 390,-244.75 396,-250.75 396,-256.75 396,-256.75 396,-306.75 396,-306.75 396,-312.75 390,-318.75 384,-318.75"/>
<text text-anchor="start" x="309.25" y="-301.45" font-family="Helvetica,sans-Serif" font-size="14.00">gini = 0.0</text>
<text text-anchor="start" x="299.12" y="-284.95" font-family="Helvetica,sans-Serif" font-size="14.00">samples = 2</text>
<text text-anchor="start" x="290.12" y="-268.45" font-family="Helvetica,sans-Serif" font-size="14.00">value = [0, 0, 2]</text>
<text text-anchor="start" x="288.25" y="-251.95" font-family="Helvetica,sans-Serif" font-size="14.00">class = virginica</text>
</g>
<!-- 3&#45;&gt;9 -->
<g id="edge9" class="edge">
<title>3&#45;&gt;9</title>
<path fill="none" stroke="black" d="M334.27,-362.65C334.78,-352.1 335.33,-340.81 335.84,-330.13"/>
<polygon fill="black" stroke="black" points="339.33,-330.52 336.31,-320.37 332.33,-330.19 339.33,-330.52"/>
</g>
<!-- 5 -->
<g id="node6" class="node">
<title>5</title>
<path fill="#39e581" stroke="black" d="M114.25,-192.25C114.25,-192.25 12,-192.25 12,-192.25 6,-192.25 0,-186.25 0,-180.25 0,-180.25 0,-130.25 0,-130.25 0,-124.25 6,-118.25 12,-118.25 12,-118.25 114.25,-118.25 114.25,-118.25 120.25,-118.25 126.25,-124.25 126.25,-130.25 126.25,-130.25 126.25,-180.25 126.25,-180.25 126.25,-186.25 120.25,-192.25 114.25,-192.25"/>
<text text-anchor="start" x="34.25" y="-174.95" font-family="Helvetica,sans-Serif" font-size="14.00">gini = 0.0</text>
<text text-anchor="start" x="20" y="-158.45" font-family="Helvetica,sans-Serif" font-size="14.00">samples = 35</text>
<text text-anchor="start" x="11" y="-141.95" font-family="Helvetica,sans-Serif" font-size="14.00">value = [0, 35, 0]</text>
<text text-anchor="start" x="8" y="-125.45" font-family="Helvetica,sans-Serif" font-size="14.00">class = versicolor</text>
</g>
<!-- 4&#45;&gt;5 -->
<g id="edge5" class="edge">
<title>4&#45;&gt;5</title>
<path fill="none" stroke="black" d="M138.22,-236.15C127.35,-224.59 115.64,-212.14 104.79,-200.58"/>
<polygon fill="black" stroke="black" points="107.49,-198.35 98.09,-193.46 102.39,-203.14 107.49,-198.35"/>
</g>
<!-- 6 -->
<g id="node7" class="node">
<title>6</title>
<path fill="#9cf2c0" stroke="black" d="M294.25,-200.5C294.25,-200.5 156,-200.5 156,-200.5 150,-200.5 144,-194.5 144,-188.5 144,-188.5 144,-122 144,-122 144,-116 150,-110 156,-110 156,-110 294.25,-110 294.25,-110 300.25,-110 306.25,-116 306.25,-122 306.25,-122 306.25,-188.5 306.25,-188.5 306.25,-194.5 300.25,-200.5 294.25,-200.5"/>
<text text-anchor="start" x="152" y="-183.2" font-family="Helvetica,sans-Serif" font-size="14.00">sepal width (cm) ≤ 2.45</text>
<text text-anchor="start" x="188" y="-166.7" font-family="Helvetica,sans-Serif" font-size="14.00">gini = 0.444</text>
<text text-anchor="start" x="186.12" y="-150.2" font-family="Helvetica,sans-Serif" font-size="14.00">samples = 3</text>
<text text-anchor="start" x="177.12" y="-133.7" font-family="Helvetica,sans-Serif" font-size="14.00">value = [0, 2, 1]</text>
<text text-anchor="start" x="170" y="-117.2" font-family="Helvetica,sans-Serif" font-size="14.00">class = versicolor</text>
</g>
<!-- 4&#45;&gt;6 -->
<g id="edge6" class="edge">
<title>4&#45;&gt;6</title>
<path fill="none" stroke="black" d="M196.24,-236.15C199.12,-228.2 202.15,-219.82 205.12,-211.61"/>
<polygon fill="black" stroke="black" points="208.35,-212.97 208.45,-202.38 201.76,-210.59 208.35,-212.97"/>
</g>
<!-- 7 -->
<g id="node8" class="node">
<title>7</title>
<path fill="#8139e5" stroke="black" d="M202,-74C202,-74 110.25,-74 110.25,-74 104.25,-74 98.25,-68 98.25,-62 98.25,-62 98.25,-12 98.25,-12 98.25,-6 104.25,0 110.25,0 110.25,0 202,0 202,0 208,0 214,-6 214,-12 214,-12 214,-62 214,-62 214,-68 208,-74 202,-74"/>
<text text-anchor="start" x="127.25" y="-56.7" font-family="Helvetica,sans-Serif" font-size="14.00">gini = 0.0</text>
<text text-anchor="start" x="117.12" y="-40.2" font-family="Helvetica,sans-Serif" font-size="14.00">samples = 1</text>
<text text-anchor="start" x="108.12" y="-23.7" font-family="Helvetica,sans-Serif" font-size="14.00">value = [0, 0, 1]</text>
<text text-anchor="start" x="106.25" y="-7.2" font-family="Helvetica,sans-Serif" font-size="14.00">class = virginica</text>
</g>
<!-- 6&#45;&gt;7 -->
<g id="edge7" class="edge">
<title>6&#45;&gt;7</title>
<path fill="none" stroke="black" d="M198.65,-109.64C193.67,-101.26 188.47,-92.49 183.47,-84.07"/>
<polygon fill="black" stroke="black" points="186.61,-82.51 178.5,-75.7 180.59,-86.08 186.61,-82.51"/>
</g>
<!-- 8 -->
<g id="node9" class="node">
<title>8</title>
<path fill="#39e581" stroke="black" d="M346.25,-74C346.25,-74 244,-74 244,-74 238,-74 232,-68 232,-62 232,-62 232,-12 232,-12 232,-6 238,0 244,0 244,0 346.25,0 346.25,0 352.25,0 358.25,-6 358.25,-12 358.25,-12 358.25,-62 358.25,-62 358.25,-68 352.25,-74 346.25,-74"/>
<text text-anchor="start" x="266.25" y="-56.7" font-family="Helvetica,sans-Serif" font-size="14.00">gini = 0.0</text>
<text text-anchor="start" x="256.12" y="-40.2" font-family="Helvetica,sans-Serif" font-size="14.00">samples = 2</text>
<text text-anchor="start" x="247.12" y="-23.7" font-family="Helvetica,sans-Serif" font-size="14.00">value = [0, 2, 0]</text>
<text text-anchor="start" x="240" y="-7.2" font-family="Helvetica,sans-Serif" font-size="14.00">class = versicolor</text>
</g>
<!-- 6&#45;&gt;8 -->
<g id="edge8" class="edge">
<title>6&#45;&gt;8</title>
<path fill="none" stroke="black" d="M251.99,-109.64C257.03,-101.26 262.31,-92.49 267.38,-84.07"/>
<polygon fill="black" stroke="black" points="270.27,-86.06 272.43,-75.69 264.27,-82.45 270.27,-86.06"/>
</g>
<!-- 11 -->
<g id="node12" class="node">
<title>11</title>
<path fill="#ffffff" stroke="black" d="M581.25,-327C581.25,-327 437,-327 437,-327 431,-327 425,-321 425,-315 425,-315 425,-248.5 425,-248.5 425,-242.5 431,-236.5 437,-236.5 437,-236.5 581.25,-236.5 581.25,-236.5 587.25,-236.5 593.25,-242.5 593.25,-248.5 593.25,-248.5 593.25,-315 593.25,-315 593.25,-321 587.25,-327 581.25,-327"/>
<text text-anchor="start" x="433" y="-309.7" font-family="Helvetica,sans-Serif" font-size="14.00">sepal length (cm) ≤ 5.95</text>
<text text-anchor="start" x="480.25" y="-293.2" font-family="Helvetica,sans-Serif" font-size="14.00">gini = 0.5</text>
<text text-anchor="start" x="470.12" y="-276.7" font-family="Helvetica,sans-Serif" font-size="14.00">samples = 2</text>
<text text-anchor="start" x="461.12" y="-260.2" font-family="Helvetica,sans-Serif" font-size="14.00">value = [0, 1, 1]</text>
<text text-anchor="start" x="454" y="-243.7" font-family="Helvetica,sans-Serif" font-size="14.00">class = versicolor</text>
</g>
<!-- 10&#45;&gt;11 -->
<g id="edge11" class="edge">
<title>10&#45;&gt;11</title>
<path fill="none" stroke="black" d="M512.98,-362.65C512.61,-354.97 512.22,-346.89 511.83,-338.94"/>
<polygon fill="black" stroke="black" points="515.33,-338.78 511.35,-328.96 508.34,-339.12 515.33,-338.78"/>
</g>
<!-- 14 -->
<g id="node15" class="node">
<title>14</title>
<path fill="#8139e5" stroke="black" d="M719.25,-318.75C719.25,-318.75 623,-318.75 623,-318.75 617,-318.75 611,-312.75 611,-306.75 611,-306.75 611,-256.75 611,-256.75 611,-250.75 617,-244.75 623,-244.75 623,-244.75 719.25,-244.75 719.25,-244.75 725.25,-244.75 731.25,-250.75 731.25,-256.75 731.25,-256.75 731.25,-306.75 731.25,-306.75 731.25,-312.75 725.25,-318.75 719.25,-318.75"/>
<text text-anchor="start" x="642.25" y="-301.45" font-family="Helvetica,sans-Serif" font-size="14.00">gini = 0.0</text>
<text text-anchor="start" x="628" y="-284.95" font-family="Helvetica,sans-Serif" font-size="14.00">samples = 35</text>
<text text-anchor="start" x="619" y="-268.45" font-family="Helvetica,sans-Serif" font-size="14.00">value = [0, 0, 35]</text>
<text text-anchor="start" x="621.25" y="-251.95" font-family="Helvetica,sans-Serif" font-size="14.00">class = virginica</text>
</g>
<!-- 10&#45;&gt;14 -->
<g id="edge14" class="edge">
<title>10&#45;&gt;14</title>
<path fill="none" stroke="black" d="M571,-362.65C585.99,-350.7 602.16,-337.79 617.04,-325.92"/>
<polygon fill="black" stroke="black" points="618.82,-328.97 624.45,-320 614.45,-323.5 618.82,-328.97"/>
</g>
<!-- 12 -->
<g id="node13" class="node">
<title>12</title>
<path fill="#39e581" stroke="black" d="M516.25,-192.25C516.25,-192.25 414,-192.25 414,-192.25 408,-192.25 402,-186.25 402,-180.25 402,-180.25 402,-130.25 402,-130.25 402,-124.25 408,-118.25 414,-118.25 414,-118.25 516.25,-118.25 516.25,-118.25 522.25,-118.25 528.25,-124.25 528.25,-130.25 528.25,-130.25 528.25,-180.25 528.25,-180.25 528.25,-186.25 522.25,-192.25 516.25,-192.25"/>
<text text-anchor="start" x="436.25" y="-174.95" font-family="Helvetica,sans-Serif" font-size="14.00">gini = 0.0</text>
<text text-anchor="start" x="426.12" y="-158.45" font-family="Helvetica,sans-Serif" font-size="14.00">samples = 1</text>
<text text-anchor="start" x="417.12" y="-141.95" font-family="Helvetica,sans-Serif" font-size="14.00">value = [0, 1, 0]</text>
<text text-anchor="start" x="410" y="-125.45" font-family="Helvetica,sans-Serif" font-size="14.00">class = versicolor</text>
</g>
<!-- 11&#45;&gt;12 -->
<g id="edge12" class="edge">
<title>11&#45;&gt;12</title>
<path fill="none" stroke="black" d="M493.36,-236.15C489.55,-225.37 485.47,-213.82 481.63,-202.95"/>
<polygon fill="black" stroke="black" points="485.02,-202.05 478.39,-193.78 478.42,-204.38 485.02,-202.05"/>
</g>
<!-- 13 -->
<g id="node14" class="node">
<title>13</title>
<path fill="#8139e5" stroke="black" d="M650,-192.25C650,-192.25 558.25,-192.25 558.25,-192.25 552.25,-192.25 546.25,-186.25 546.25,-180.25 546.25,-180.25 546.25,-130.25 546.25,-130.25 546.25,-124.25 552.25,-118.25 558.25,-118.25 558.25,-118.25 650,-118.25 650,-118.25 656,-118.25 662,-124.25 662,-130.25 662,-130.25 662,-180.25 662,-180.25 662,-186.25 656,-192.25 650,-192.25"/>
<text text-anchor="start" x="575.25" y="-174.95" font-family="Helvetica,sans-Serif" font-size="14.00">gini = 0.0</text>
<text text-anchor="start" x="565.12" y="-158.45" font-family="Helvetica,sans-Serif" font-size="14.00">samples = 1</text>
<text text-anchor="start" x="556.12" y="-141.95" font-family="Helvetica,sans-Serif" font-size="14.00">value = [0, 0, 1]</text>
<text text-anchor="start" x="554.25" y="-125.45" font-family="Helvetica,sans-Serif" font-size="14.00">class = virginica</text>
</g>
<!-- 11&#45;&gt;13 -->
<g id="edge13" class="edge">
<title>11&#45;&gt;13</title>
<path fill="none" stroke="black" d="M543.15,-236.15C551.81,-224.81 561.11,-212.62 569.78,-201.26"/>
<polygon fill="black" stroke="black" points="572.37,-203.63 575.66,-193.56 566.81,-199.39 572.37,-203.63"/>
</g>
</g>
</svg>
