<?xml version="1.0" encoding="UTF-8" standalone="no"?>
<!DOCTYPE svg PUBLIC "-//W3C//DTD SVG 1.1//EN"
 "http://www.w3.org/Graphics/SVG/1.1/DTD/svg11.dtd">
<!-- Generated by graphviz version 9.0.0 (20230911.1827)
 -->
<!-- Title: Tree Pages: 1 -->
<svg width="299pt" height="335pt"
 viewBox="0.00 0.00 299.25 335.00" xmlns="http://www.w3.org/2000/svg" xmlns:xlink="http://www.w3.org/1999/xlink">
<g id="graph0" class="graph" transform="scale(1 1) rotate(0) translate(4 331)">
<title>Tree</title>
<polygon fill="white" stroke="none" points="-4,4 -4,-331 295.25,-331 295.25,4 -4,4"/>
<!-- 0 -->
<g id="node1" class="node">
<title>0</title>
<path fill="#f6d5bd" stroke="black" d="M172.75,-327C172.75,-327 61.5,-327 61.5,-327 55.5,-327 49.5,-321 49.5,-315 49.5,-315 49.5,-248.5 49.5,-248.5 49.5,-242.5 55.5,-236.5 61.5,-236.5 61.5,-236.5 172.75,-236.5 172.75,-236.5 178.75,-236.5 184.75,-242.5 184.75,-248.5 184.75,-248.5 184.75,-315 184.75,-315 184.75,-321 178.75,-327 172.75,-327"/>
<text text-anchor="start" x="57.5" y="-309.7" font-family="Helvetica,sans-Serif" font-size="14.00">Balance ≤ 32000.0</text>
<text text-anchor="start" x="84.12" y="-293.2" font-family="Helvetica,sans-Serif" font-size="14.00">gini = 0.48</text>
<text text-anchor="start" x="78.12" y="-276.7" font-family="Helvetica,sans-Serif" font-size="14.00">samples = 5</text>
<text text-anchor="start" x="77" y="-260.2" font-family="Helvetica,sans-Serif" font-size="14.00">value = [3, 2]</text>
<text text-anchor="start" x="81.5" y="-243.7" font-family="Helvetica,sans-Serif" font-size="14.00">class = yes</text>
</g>
<!-- 1 -->
<g id="node2" class="node">
<title>1</title>
<path fill="#399de5" stroke="black" d="M84.25,-192.25C84.25,-192.25 12,-192.25 12,-192.25 6,-192.25 0,-186.25 0,-180.25 0,-180.25 0,-130.25 0,-130.25 0,-124.25 6,-118.25 12,-118.25 12,-118.25 84.25,-118.25 84.25,-118.25 90.25,-118.25 96.25,-124.25 96.25,-130.25 96.25,-130.25 96.25,-180.25 96.25,-180.25 96.25,-186.25 90.25,-192.25 84.25,-192.25"/>
<text text-anchor="start" x="19.25" y="-174.95" font-family="Helvetica,sans-Serif" font-size="14.00">gini = 0.0</text>
<text text-anchor="start" x="9.12" y="-158.45" font-family="Helvetica,sans-Serif" font-size="14.00">samples = 1</text>
<text text-anchor="start" x="8" y="-141.95" font-family="Helvetica,sans-Serif" font-size="14.00">value = [0, 1]</text>
<text text-anchor="start" x="15.88" y="-125.45" font-family="Helvetica,sans-Serif" font-size="14.00">class = no</text>
</g>
<!-- 0&#45;&gt;1 -->
<g id="edge1" class="edge">
<title>0&#45;&gt;1</title>
<path fill="none" stroke="black" d="M92.41,-236.15C86.31,-225.15 79.77,-213.34 73.63,-202.27"/>
<polygon fill="black" stroke="black" points="76.78,-200.73 68.87,-193.68 70.66,-204.12 76.78,-200.73"/>
<text text-anchor="middle" x="61.24" y="-211.34" font-family="Helvetica,sans-Serif" font-size="14.00">True</text>
</g>
<!-- 2 -->
<g id="node3" class="node">
<title>2</title>
<path fill="#eeab7b" stroke="black" d="M245.88,-200.5C245.88,-200.5 126.38,-200.5 126.38,-200.5 120.38,-200.5 114.38,-194.5 114.38,-188.5 114.38,-188.5 114.38,-122 114.38,-122 114.38,-116 120.38,-110 126.38,-110 126.38,-110 245.88,-110 245.88,-110 251.88,-110 257.88,-116 257.88,-122 257.88,-122 257.88,-188.5 257.88,-188.5 257.88,-194.5 251.88,-200.5 245.88,-200.5"/>
<text text-anchor="start" x="122.38" y="-183.2" font-family="Helvetica,sans-Serif" font-size="14.00">Balance ≤ 157500.0</text>
<text text-anchor="start" x="149" y="-166.7" font-family="Helvetica,sans-Serif" font-size="14.00">gini = 0.375</text>
<text text-anchor="start" x="147.12" y="-150.2" font-family="Helvetica,sans-Serif" font-size="14.00">samples = 4</text>
<text text-anchor="start" x="146" y="-133.7" font-family="Helvetica,sans-Serif" font-size="14.00">value = [3, 1]</text>
<text text-anchor="start" x="150.5" y="-117.2" font-family="Helvetica,sans-Serif" font-size="14.00">class = yes</text>
</g>
<!-- 0&#45;&gt;2 -->
<g id="edge2" class="edge">
<title>0&#45;&gt;2</title>
<path fill="none" stroke="black" d="M141.84,-236.15C146.4,-227.93 151.21,-219.26 155.9,-210.78"/>
<polygon fill="black" stroke="black" points="158.83,-212.72 160.62,-202.28 152.71,-209.33 158.83,-212.72"/>
<text text-anchor="middle" x="168.24" y="-219.93" font-family="Helvetica,sans-Serif" font-size="14.00">False</text>
</g>
<!-- 3 -->
<g id="node4" class="node">
<title>3</title>
<path fill="#e58139" stroke="black" d="M165.25,-74C165.25,-74 93,-74 93,-74 87,-74 81,-68 81,-62 81,-62 81,-12 81,-12 81,-6 87,0 93,0 93,0 165.25,0 165.25,0 171.25,0 177.25,-6 177.25,-12 177.25,-12 177.25,-62 177.25,-62 177.25,-68 171.25,-74 165.25,-74"/>
<text text-anchor="start" x="100.25" y="-56.7" font-family="Helvetica,sans-Serif" font-size="14.00">gini = 0.0</text>
<text text-anchor="start" x="90.12" y="-40.2" font-family="Helvetica,sans-Serif" font-size="14.00">samples = 3</text>
<text text-anchor="start" x="89" y="-23.7" font-family="Helvetica,sans-Serif" font-size="14.00">value = [3, 0]</text>
<text text-anchor="start" x="93.5" y="-7.2" font-family="Helvetica,sans-Serif" font-size="14.00">class = yes</text>
</g>
<!-- 2&#45;&gt;3 -->
<g id="edge3" class="edge">
<title>2&#45;&gt;3</title>
<path fill="none" stroke="black" d="M164.25,-109.64C160.23,-101.44 156.03,-92.87 151.98,-84.62"/>
<polygon fill="black" stroke="black" points="155.18,-83.19 147.64,-75.75 148.9,-86.27 155.18,-83.19"/>
</g>
<!-- 4 -->
<g id="node5" class="node">
<title>4</title>
<path fill="#399de5" stroke="black" d="M279.25,-74C279.25,-74 207,-74 207,-74 201,-74 195,-68 195,-62 195,-62 195,-12 195,-12 195,-6 201,0 207,0 207,0 279.25,0 279.25,0 285.25,0 291.25,-6 291.25,-12 291.25,-12 291.25,-62 291.25,-62 291.25,-68 285.25,-74 279.25,-74"/>
<text text-anchor="start" x="214.25" y="-56.7" font-family="Helvetica,sans-Serif" font-size="14.00">gini = 0.0</text>
<text text-anchor="start" x="204.12" y="-40.2" font-family="Helvetica,sans-Serif" font-size="14.00">samples = 1</text>
<text text-anchor="start" x="203" y="-23.7" font-family="Helvetica,sans-Serif" font-size="14.00">value = [0, 1]</text>
<text text-anchor="start" x="210.88" y="-7.2" font-family="Helvetica,sans-Serif" font-size="14.00">class = no</text>
</g>
<!-- 2&#45;&gt;4 -->
<g id="edge4" class="edge">
<title>2&#45;&gt;4</title>
<path fill="none" stroke="black" d="M208,-109.64C212.02,-101.44 216.22,-92.87 220.27,-84.62"/>
<polygon fill="black" stroke="black" points="223.35,-86.27 224.61,-75.75 217.07,-83.19 223.35,-86.27"/>
</g>
</g>
</svg>
